<?xml version="1.0" encoding="UTF-8"?>
<svg width="40px" height="58px" viewBox="0 0 40 58" version="1.1" xmlns="http://www.w3.org/2000/svg" xmlns:xlink="http://www.w3.org/1999/xlink">
    <defs>
        <polygon id="path-1" points="0 0 40 0 40 58 0 58"></polygon>
    </defs>
    <g id="mapa" stroke="none" stroke-width="1" fill="none" fill-rule="evenodd" transform="translate(-50.000000, -207.000000)">
        <g id="Page-1" transform="translate(50.000000, 207.000000)">
            <mask id="mask-2" fill="white">
                <use xlink:href="#path-1"></use>
            </mask>
            <path d="M19.8899216,26.8604444 C17.3101349,26.8604444 14.4876111,25.5731667 13.0948973,22.0142222 C12.886837,21.4479167 12.9029657,20.3120833 12.9029657,20.2081667 L12.9029657,18.6091389 C12.9029657,14.0746667 16.7585331,12.0108333 20.1133042,12.0108333 C24.2406403,12.0108333 27.4341243,15.312 27.4341243,19.43725 C27.4341243,23.5625 24.019677,26.8604444 19.8899216,26.8604444 M39.0556642,14.4371667 C38.8476039,13.6630278 38.4282575,12.8381389 38.1169734,12.11475 C34.4025322,3.19725 26.2849539,0 19.7294409,0 C10.9562307,0 1.29190944,5.87813889 0,17.9928889 L0,20.46675 C0,20.5698611 0.0346767202,21.4978611 0.0846757122,21.9634722 C0.809661096,27.7344722 5.37085946,33.8711944 8.77643596,39.6454167 C12.4400718,45.8312778 16.2424145,51.91725 20.009274,58 C22.3342271,54.0294167 24.649503,50.0072778 26.9180057,46.1406111 C27.5381545,45.0071944 28.2566884,43.8745833 28.8744179,42.7919167 C29.2865063,42.0677222 30.0776194,41.3475556 30.4364831,40.6773333 C34.1001189,33.9751111 40,27.2221389 40,20.5698611 L40,17.8382222 C40,17.1180556 39.1056632,14.5910278 39.0556642,14.4371667" id="Fill-1" fill="#FE6A60" mask="url(#mask-2)"></path>
        </g>
    </g>
</svg>